<svg xmlns="http://www.w3.org/2000/svg" xmlns:xlink="http://www.w3.org/1999/xlink" width="474" height="462" viewBox="0 0 474 462">
  <defs>
    <filter id="Rectangle_122" x="0" y="0" width="474" height="83" filterUnits="userSpaceOnUse">
      <feOffset dy="3" input="SourceAlpha"/>
      <feGaussianBlur stdDeviation="3" result="blur"/>
      <feFlood flood-opacity="0.98"/>
      <feComposite operator="in" in2="blur"/>
      <feComposite in="SourceGraphic"/>
    </filter>
  </defs>
  <g id="Group_65" data-name="Group 65" transform="translate(-1116 -429)">
    <g transform="matrix(1, 0, 0, 1, 1116, 429)" filter="url(#Rectangle_122)">
      <g id="Rectangle_122-2" data-name="Rectangle 122" transform="translate(9 6)" fill="#1d2434" stroke="rgba(54,54,54,0.41)" stroke-width="1">
        <rect width="456" height="65" stroke="none"/>
        <rect x="0.5" y="0.5" width="455" height="64" fill="none"/>
      </g>
    </g>
    <text id="August_2019" data-name="August 2019" transform="translate(1347 476)" fill="#fff" font-size="26" font-family="Montserrat-Regular, Montserrat"><tspan x="-80.015" y="0">August 2019</tspan></text>
    <rect id="Rectangle_123" data-name="Rectangle 123" width="65" height="65" transform="translate(1125 500)" fill="#081433"/>
    <text id="M" transform="translate(1156 536)" fill="#fff" font-size="20" font-family="Montserrat-Regular, Montserrat"><tspan x="-9.83" y="0">M</tspan></text>
    <rect id="Rectangle_124" data-name="Rectangle 124" width="65" height="65" transform="translate(1190 500)" fill="#081433"/>
    <text id="T" transform="translate(1221 534)" fill="#fff" font-size="18" font-family="Montserrat-Regular, Montserrat"><tspan x="-5.436" y="0">T</tspan></text>
    <rect id="Rectangle_125" data-name="Rectangle 125" width="65" height="65" transform="translate(1255 500)" fill="#081433"/>
    <text id="W" transform="translate(1287 539)" fill="#fff" font-size="23" font-family="Montserrat-Regular, Montserrat"><tspan x="-12.052" y="0">W</tspan></text>
    <rect id="Rectangle_126" data-name="Rectangle 126" width="66" height="65" transform="translate(1320 500)" fill="#081433"/>
    <text id="T-2" data-name="T" transform="translate(1351 534)" fill="#fff" font-size="18" font-family="Montserrat-Regular, Montserrat"><tspan x="-5.436" y="0">T</tspan></text>
    <rect id="Rectangle_127" data-name="Rectangle 127" width="65" height="65" transform="translate(1386 500)" fill="#081433"/>
    <text id="F" transform="translate(1416 534)" fill="#fff" font-size="18" font-family="Montserrat-Regular, Montserrat"><tspan x="-5.436" y="0">F</tspan></text>
    <rect id="Rectangle_128" data-name="Rectangle 128" width="65" height="65" transform="translate(1451 500)" fill="#081433"/>
    <text id="S" transform="translate(1481 533)" fill="#fff" font-size="17" font-family="Montserrat-Regular, Montserrat"><tspan x="-5.355" y="0">S</tspan></text>
    <rect id="Rectangle_129" data-name="Rectangle 129" width="65" height="65" transform="translate(1516 500)" fill="#081433"/>
    <text id="S-2" data-name="S" transform="translate(1546 533)" fill="#fff" font-size="17" font-family="Montserrat-Regular, Montserrat"><tspan x="-5.355" y="0">S</tspan></text>
    <rect id="Rectangle_130" data-name="Rectangle 130" width="65" height="65" transform="translate(1125 565)" fill="#081433"/>
    <text id="_29" data-name="29" transform="translate(1156 603)" fill="#aaa" font-size="23" font-family="Montserrat-Regular, Montserrat"><tspan x="-13.892" y="0">29</tspan></text>
    <rect id="Rectangle_131" data-name="Rectangle 131" width="65" height="65" transform="translate(1190 565)" fill="#081433"/>
    <text id="_30" data-name="30" transform="translate(1223 607)" fill="#aaa" font-size="27" font-family="Montserrat-Regular, Montserrat"><tspan x="-17.091" y="0">30</tspan></text>
    <rect id="Rectangle_132" data-name="Rectangle 132" width="65" height="65" transform="translate(1255 565)" fill="#081433"/>
    <text id="_31" data-name="31" transform="translate(1287 606)" fill="#aaa" font-size="26" font-family="Montserrat-Regular, Montserrat"><tspan x="-12.467" y="0">31</tspan></text>
    <rect id="Rectangle_133" data-name="Rectangle 133" width="66" height="65" transform="translate(1320 565)" fill="#081433"/>
    <text id="_1" data-name="1" transform="translate(1353 602)" fill="#fff" font-size="22" font-family="Montserrat-Regular, Montserrat"><tspan x="-4.191" y="0">1</tspan></text>
    <rect id="Rectangle_134" data-name="Rectangle 134" width="65" height="65" transform="translate(1386 565)" fill="#081433"/>
    <text id="_2" data-name="2" transform="translate(1418 607)" fill="#fff" font-size="27" font-family="Montserrat-Regular, Montserrat"><tspan x="-7.952" y="0">2</tspan></text>
    <rect id="Rectangle_135" data-name="Rectangle 135" width="65" height="65" transform="translate(1451 565)" fill="#081433"/>
    <text id="_3" data-name="3" transform="translate(1481 599)" fill="#fff" font-size="19" font-family="Montserrat-Regular, Montserrat"><tspan x="-5.491" y="0">3</tspan></text>
    <rect id="Rectangle_136" data-name="Rectangle 136" width="65" height="65" transform="translate(1516 565)" fill="#081433"/>
    <text id="_4" data-name="4" transform="translate(1546 599)" fill="#fff" font-size="19" font-family="Montserrat-Regular, Montserrat"><tspan x="-5.434" y="0">4</tspan></text>
    <rect id="Rectangle_137" data-name="Rectangle 137" width="65" height="66" transform="translate(1125 630)" fill="#081433"/>
    <text id="_5" data-name="5" transform="translate(1155 663)" fill="#fff" font-size="18" font-family="Montserrat-Regular, Montserrat"><tspan x="-5.211" y="0">5</tspan></text>
    <rect id="Rectangle_138" data-name="Rectangle 138" width="65" height="66" transform="translate(1190 630)" fill="#081433"/>
    <text id="_6" data-name="6" transform="translate(1222 672)" fill="#fff" font-size="27" font-family="Montserrat-Regular, Montserrat"><tspan x="-8.37" y="0">6</tspan></text>
    <rect id="Rectangle_139" data-name="Rectangle 139" width="65" height="66" transform="translate(1255 630)" fill="#081433"/>
    <text id="_7" data-name="7" transform="translate(1286 664)" fill="#fff" font-size="19" font-family="Montserrat-Regular, Montserrat"><tspan x="-5.377" y="0">7</tspan></text>
    <rect id="Rectangle_140" data-name="Rectangle 140" width="66" height="66" transform="translate(1320 630)" fill="#081433"/>
    <text id="_8" data-name="8" transform="translate(1353 671)" fill="#fff" font-size="26" font-family="Montserrat-Regular, Montserrat"><tspan x="-8.268" y="0">8</tspan></text>
    <rect id="Rectangle_141" data-name="Rectangle 141" width="65" height="66" transform="translate(1386 630)" fill="#081433"/>
    <text id="_9" data-name="9" transform="translate(1418 672)" fill="#fff" font-size="27" font-family="Montserrat-Regular, Montserrat"><tspan x="-8.357" y="0">9</tspan></text>
    <rect id="Rectangle_142" data-name="Rectangle 142" width="65" height="66" transform="translate(1451 630)" fill="#081433"/>
    <text id="_10" data-name="10" transform="translate(1481 668)" fill="#fff" font-size="23" font-family="Montserrat-Regular, Montserrat"><tspan x="-12.294" y="0">10</tspan></text>
    <rect id="Rectangle_143" data-name="Rectangle 143" width="65" height="66" transform="translate(1516 630)" fill="#081433"/>
    <text id="_11" data-name="11" transform="translate(1547 672)" fill="#fff" font-size="27" font-family="Montserrat-Regular, Montserrat"><tspan x="-10.287" y="0">11</tspan></text>
    <rect id="Rectangle_144" data-name="Rectangle 144" width="65" height="65" transform="translate(1125 696)" fill="#081433"/>
    <text id="_12" data-name="12" transform="translate(1157 734)" fill="#fff" font-size="25" font-family="Montserrat-Regular, Montserrat"><tspan x="-12.125" y="0">12</tspan></text>
    <rect id="Rectangle_145" data-name="Rectangle 145" width="65" height="65" transform="translate(1190 696)" fill="#081433"/>
    <text id="_13" data-name="13" transform="translate(1222 735)" fill="#fff" font-size="26" font-family="Montserrat-Regular, Montserrat"><tspan x="-12.467" y="0">13</tspan></text>
    <rect id="Rectangle_146" data-name="Rectangle 146" width="65" height="65" transform="translate(1255 696)" fill="#081433"/>
    <text id="_14" data-name="14" transform="translate(1287 735)" fill="#fff" font-size="26" font-family="Montserrat-Regular, Montserrat"><tspan x="-12.389" y="0">14</tspan></text>
    <rect id="Rectangle_147" data-name="Rectangle 147" width="66" height="65" transform="translate(1320 696)" fill="#081433"/>
    <text id="_15" data-name="15" transform="translate(1352 735)" fill="#fff" font-size="26" font-family="Montserrat-Regular, Montserrat"><tspan x="-12.48" y="0">15</tspan></text>
    <rect id="Rectangle_148" data-name="Rectangle 148" width="65" height="65" transform="translate(1386 696)" fill="#081433"/>
    <text id="_16" data-name="16" transform="translate(1416 732)" fill="#fff" font-size="23" font-family="Montserrat-Regular, Montserrat"><tspan x="-11.512" y="0">16</tspan></text>
    <rect id="Rectangle_149" data-name="Rectangle 149" width="65" height="65" transform="translate(1451 696)" fill="#081433"/>
    <text id="_17" data-name="17" transform="translate(1481 735)" fill="#fff" font-size="26" font-family="Montserrat-Regular, Montserrat"><tspan x="-12.311" y="0">17</tspan></text>
    <rect id="Rectangle_150" data-name="Rectangle 150" width="65" height="65" transform="translate(1516 696)" fill="#081433"/>
    <text id="_18" data-name="18" transform="translate(1546 732)" fill="#fff" font-size="23" font-family="Montserrat-Regular, Montserrat"><tspan x="-11.696" y="0">18</tspan></text>
    <rect id="Rectangle_151" data-name="Rectangle 151" width="65" height="65" transform="translate(1125 761)" fill="#081433"/>
    <text id="_19" data-name="19" transform="translate(1157 799)" fill="#fff" font-size="25" font-family="Montserrat-Regular, Montserrat"><tspan x="-12.5" y="0">19</tspan></text>
    <rect id="Rectangle_152" data-name="Rectangle 152" width="65" height="65" transform="translate(1190 761)" fill="#081433"/>
    <text id="_20" data-name="20" transform="translate(1223 801)" fill="#fff" font-size="27" font-family="Montserrat-Regular, Montserrat"><tspan x="-17.24" y="0">20</tspan></text>
    <rect id="Rectangle_153" data-name="Rectangle 153" width="65" height="65" transform="translate(1255 761)" fill="#081433"/>
    <text id="_21" data-name="21" transform="translate(1287 799)" fill="#fff" font-size="25" font-family="Montserrat-Regular, Montserrat"><tspan x="-12.125" y="0">21</tspan></text>
    <rect id="Rectangle_154" data-name="Rectangle 154" width="66" height="65" transform="translate(1320 761)" fill="#081433"/>
    <text id="_22" data-name="22" transform="translate(1351 797)" fill="#fff" font-size="23" font-family="Montserrat-Regular, Montserrat"><tspan x="-13.547" y="0">22</tspan></text>
    <rect id="Rectangle_155" data-name="Rectangle 155" width="65" height="65" transform="translate(1386 761)" fill="#081433"/>
    <text id="_23" data-name="23" transform="translate(1416 797)" fill="#fff" font-size="23" font-family="Montserrat-Regular, Montserrat"><tspan x="-13.42" y="0">23</tspan></text>
    <rect id="Rectangle_156" data-name="Rectangle 156" width="65" height="65" transform="translate(1451 761)" fill="#081433"/>
    <text id="_24" data-name="24" transform="translate(1482 798)" fill="#fff" font-size="24" font-family="Montserrat-Regular, Montserrat"><tspan x="-13.932" y="0">24</tspan></text>
    <rect id="Rectangle_157" data-name="Rectangle 157" width="65" height="65" transform="translate(1516 761)" fill="#081433"/>
    <text id="_25" data-name="25" transform="translate(1546 797)" fill="#fff" font-size="23" font-family="Montserrat-Regular, Montserrat"><tspan x="-13.432" y="0">25</tspan></text>
    <rect id="Rectangle_158" data-name="Rectangle 158" width="65" height="65" transform="translate(1125 826)" fill="#081433"/>
    <text id="_26" data-name="26" transform="translate(1156 862)" fill="#fff" font-size="23" font-family="Montserrat-Regular, Montserrat"><tspan x="-13.903" y="0">26</tspan></text>
    <rect id="Rectangle_159" data-name="Rectangle 159" width="65" height="65" transform="translate(1190 826)" fill="#081433"/>
    <text id="_27" data-name="27" transform="translate(1221 864)" fill="#fff" font-size="25" font-family="Montserrat-Regular, Montserrat"><tspan x="-14.438" y="0">27</tspan></text>
    <rect id="Rectangle_160" data-name="Rectangle 160" width="65" height="65" transform="translate(1255 826)" fill="#081433"/>
    <text id="_28" data-name="28" transform="translate(1286 862)" fill="#fff" font-size="23" font-family="Montserrat-Regular, Montserrat"><tspan x="-14.087" y="0">28</tspan></text>
    <rect id="Rectangle_161" data-name="Rectangle 161" width="66" height="65" transform="translate(1320 826)" fill="#081433"/>
    <text id="_29-2" data-name="29" transform="translate(1351 862)" fill="#fff" font-size="23" font-family="Montserrat-Regular, Montserrat"><tspan x="-13.892" y="0">29</tspan></text>
    <rect id="Rectangle_162" data-name="Rectangle 162" width="65" height="65" transform="translate(1386 826)" fill="#081433"/>
    <text id="_30-2" data-name="30" transform="translate(1417 866)" fill="#fff" font-size="27" font-family="Montserrat-Regular, Montserrat"><tspan x="-17.091" y="0">30</tspan></text>
    <rect id="Rectangle_163" data-name="Rectangle 163" width="65" height="65" transform="translate(1451 826)" fill="#081433"/>
    <text id="_31-2" data-name="31" transform="translate(1481 865)" fill="#fff" font-size="26" font-family="Montserrat-Regular, Montserrat"><tspan x="-12.467" y="0">31</tspan></text>
    <rect id="Rectangle_164" data-name="Rectangle 164" width="65" height="65" transform="translate(1516 826)" fill="#081433"/>
    <text id="_1-2" data-name="1" transform="translate(1547 861)" fill="#aaa" font-size="22" font-family="Montserrat-Regular, Montserrat"><tspan x="-4.191" y="0">1</tspan></text>
  </g>
</svg>
